<svg xmlns="http://www.w3.org/2000/svg" xmlns:xlink="http://www.w3.org/1999/xlink" width="43.525" height="43.525" viewBox="0 0 43.525 43.525"><defs><linearGradient id="a" y1="0.5" x2="1" y2="0.5" gradientUnits="objectBoundingBox"><stop offset="0.002" stop-color="#39adab"/><stop offset="0.552" stop-color="#3bb0c3"/><stop offset="1" stop-color="#3eb4da"/></linearGradient><linearGradient id="c" y1="0.5" x2="1" y2="0.5" gradientUnits="objectBoundingBox"><stop offset="0.002" stop-color="#92bb55"/><stop offset="1" stop-color="#3f7f58"/></linearGradient></defs><circle cx="21.762" cy="21.762" r="21.762" transform="translate(0)" fill="#fff"/><path d="M382.469,230.877a16.14,16.14,0,0,0-9.652,5.292c-3.438,3.65-10.6,3.691-17.374,5.4-3.828.967-5.491,4.19-6.485,7.581,0,.009,0,.017,0,.026a21.647,21.647,0,0,0,4.643,13.406,35.932,35.932,0,0,0,.56-5.689c.214-7.555-1.64-9.978,0-11.047,2.335-1.523,4.062,3.065,4.49,9.765a28.384,28.384,0,0,1-1.518,10.55A21.782,21.782,0,0,0,360,268.1c.909-4.149,1.3-10.425,1.858-16.839.713-8.125,2.994-9.836,5.7-10.263s3.564.784,3.711,4.7c0,7.7-3.76,19.521-5.525,24.642a21.758,21.758,0,0,0,4.583.573c.683-5.83,2-17,2.362-19.656.5-3.635,3.092.04,3.921-2.637.5-3.207-4.348-6.13-2.637-8.054s8.054,2.021,8.054,2.021c-4.322,4.665-2.871,19.351-1.915,26.191a21.744,21.744,0,0,0,3.96-2.449c-1.1-8.854-1.714-19.916-.264-20.988,1.639-1.212,3.136-.356,4.277,2.495.673,1.684,1.023,7.867,1.2,12.648a21.689,21.689,0,0,0-6.815-29.613Z" transform="translate(-348.957 -227.415)" fill="#97826b"/><path d="M350.65,271.58a21.759,21.759,0,1,0,39.7-16.041C380.588,258.745,378.608,282.758,350.65,271.58Z" transform="translate(-350.189 -245.357)" fill="url(#a)" style="mix-blend-mode:darken;isolation:isolate"/><path d="M350.65,271.58a21.759,21.759,0,1,0,39.7-16.041C380.588,258.745,378.608,282.758,350.65,271.58Z" transform="translate(-350.189 -245.357)" opacity="0.55" fill="url(#a)"/><g transform="translate(0.004 0)" style="mix-blend-mode:darken;isolation:isolate"><path d="M348.971,239.863a27.646,27.646,0,0,1,17.2-11.872c8.532-1.709,17.894-1.644,19-4.308a21.734,21.734,0,0,0-36.2,16.18Z" transform="translate(-348.971 -218.17)" fill="url(#c)"/></g><g transform="translate(0.004 0)" opacity="0.55"><path d="M348.971,239.863a27.646,27.646,0,0,1,17.2-11.872c8.532-1.709,17.894-1.644,19-4.308a21.734,21.734,0,0,0-36.2,16.18Z" transform="translate(-348.971 -218.17)" fill="url(#c)"/></g></svg>