<svg xmlns="http://www.w3.org/2000/svg" width="33.853" height="33.852" viewBox="0 0 33.853 33.852"><g transform="translate(-185.285 -218.169)"><circle cx="16.926" cy="16.926" r="16.926" transform="translate(185.285 218.169)" fill="#fff"/><path d="M375.022,230.877a12.553,12.553,0,0,0-7.507,4.116c-2.674,2.839-8.247,2.87-13.513,4.2-2.977.752-4.271,3.259-5.044,5.9,0,.007,0,.014,0,.02a16.836,16.836,0,0,0,3.611,10.427,27.938,27.938,0,0,0,.436-4.425c.166-5.876-1.275-7.761,0-8.592,1.816-1.185,3.16,2.384,3.493,7.595a22.076,22.076,0,0,1-1.181,8.206,16.943,16.943,0,0,0,2.23,1.509,124.438,124.438,0,0,0,1.445-13.1c.555-6.32,2.328-7.65,4.435-7.983s2.772.61,2.886,3.659c0,5.986-2.924,15.183-4.3,19.166a16.923,16.923,0,0,0,3.565.446c.531-4.534,1.554-13.223,1.837-15.288.388-2.827,2.4.031,3.049-2.051.388-2.495-3.382-4.767-2.051-6.264s6.264,1.572,6.264,1.572c-3.361,3.629-2.233,15.05-1.489,20.371a16.913,16.913,0,0,0,3.08-1.9c-.855-6.886-1.333-15.49-.205-16.324,1.275-.942,2.439-.277,3.327,1.94.524,1.31.8,6.118.931,9.837a16.869,16.869,0,0,0-5.3-23.032Z" transform="translate(-163.672 -10.015)" fill="#bcbcbc"/><path d="M350.65,268.015a16.924,16.924,0,1,0,30.88-12.476C373.935,258.033,372.4,276.709,350.65,268.015Z" transform="translate(-165.006 -29.451)" fill="#d2d2d2" style="mix-blend-mode:darken;isolation:isolate"/><g transform="translate(185.288 218.169)" style="mix-blend-mode:darken;isolation:isolate"><path d="M348.971,235.042a21.5,21.5,0,0,1,13.375-9.234c6.636-1.329,13.918-1.278,14.78-3.35a16.9,16.9,0,0,0-28.155,12.584Z" transform="translate(-348.971 -218.17)" fill="#d2d2d2"/></g></g></svg>