<svg xmlns="http://www.w3.org/2000/svg" xmlns:xlink="http://www.w3.org/1999/xlink" width="33" height="33" viewBox="0 0 33 33"><defs><clipPath id="a"><rect width="33" height="33" transform="translate(302 753)" fill="#d2d2d2" stroke="#707070" stroke-width="1"/></clipPath></defs><g transform="translate(-302 -753)" clip-path="url(#a)"><g transform="translate(302 753)"><path d="M32.881,25.9l-1.917-5.578A13.954,13.954,0,0,0,18.667.26,13.938,13.938,0,0,0,4.5,14.016,10.157,10.157,0,0,0,1.42,26.5L.1,30.337a1.815,1.815,0,0,0,1.71,2.4,1.827,1.827,0,0,0,.594-.1l3.842-1.32a10.2,10.2,0,0,0,4.343.98H10.6a10.142,10.142,0,0,0,8.2-4.17,13.983,13.983,0,0,0,5.76-1.41l5.578,1.917a2.172,2.172,0,0,0,.706.119A2.157,2.157,0,0,0,32.881,25.9ZM10.6,30.337h-.013a8.215,8.215,0,0,1-3.815-.947A.983.983,0,0,0,6,29.33l-3.94,1.354,1.354-3.94a.982.982,0,0,0-.061-.778,8.19,8.19,0,0,1,1.335-9.5A13.992,13.992,0,0,0,16.35,27.98,8.169,8.169,0,0,1,10.6,30.337Zm20.374-3.6a.178.178,0,0,1-.2.045L24.81,24.729a.982.982,0,0,0-.778.061,12,12,0,0,1-5.572,1.383h-.019A12.022,12.022,0,0,1,6.467,14.392,11.975,11.975,0,0,1,18.636,2.224a11.978,11.978,0,0,1,10.4,17.564.982.982,0,0,0-.061.778l2.052,5.971A.178.178,0,0,1,30.978,26.735Z" fill="#3ab0c6"/><path d="M24.292,8.992H12.59a.982.982,0,0,0,0,1.964h11.7a.982.982,0,0,0,0-1.964Z" fill="#79a956"/><path d="M24.292,13.031H12.59a.982.982,0,0,0,0,1.964h11.7a.982.982,0,0,0,0-1.964Z" fill="#97826b"/><path d="M19.787,17.071h-7.2a.982.982,0,0,0,0,1.964h7.2a.982.982,0,0,0,0-1.964Z" fill="#79a956"/></g></g></svg>