<svg xmlns="http://www.w3.org/2000/svg" width="191.137" height="191.127" viewBox="0 0 191.137 191.127">
  <g id="Group_5181" data-name="Group 5181" transform="translate(-3582.434 -1911.744)">
    <path id="Path_4818" data-name="Path 4818" d="M3582.434,2006.758c.176-52.361,43.489-95.164,96.146-95.014,52.3.15,95.111,43.512,94.99,96.2-.119,52.492-43.7,95.212-96.827,94.924C3624.881,2102.588,3582.26,2059.153,3582.434,2006.758ZM3729.2,2058.2c1.929-.747,1.3-2.461,1.3-3.8q.067-29.8.017-59.6c0-1.634.4-3.442-1.257-4.656-12.871-12.361-27.177-23.031-40.745-34.571-9.746-8.289-9.977-8.526-19.611-.483-14,11.687-28.819,22.386-42.057,34.987-1.677,1.187-1.348,2.987-1.349,4.637q-.026,29.859.022,59.719c0,1.347-.592,3.072,1.38,3.764Z" transform="translate(0)" fill="#f5f9fc"/>
    <path id="Path_4819" data-name="Path 4819" d="M3608.477,1974.578c13.237-12.6,28.059-23.3,42.057-34.984,9.635-8.044,9.865-7.807,19.611.483,13.568,11.54,27.875,22.21,40.745,34.571-.662,2.181-2.388,3.508-4.054,4.8q-14.6,11.308-29.268,22.519-17.868-.021-35.736-.038a81.823,81.823,0,0,1-33.354-27.349Z" transform="translate(18.376 15.498)" fill="#d2d2d2"/>
    <path id="Path_4820" data-name="Path 4820" d="M3641.81,1973.7q17.869.018,35.736.038,16.632,20.37,33.261,40.739l-102.3,0q.8-1.655,1.672-3.311A117.621,117.621,0,0,1,3641.81,1973.7Z" transform="translate(18.398 43.72)" fill="#ebebeb"/>
    <path id="Path_4821" data-name="Path 4821" d="M3642.415,1985.019l-33.3,40.774c-1.972-.692-1.378-2.418-1.381-3.764q-.064-29.859-.019-59.719c0-1.651-.329-3.45,1.348-4.639a26.159,26.159,0,0,0,6.746,6.925c3.812,2.879,6.638,5.03,7.774,5.751A149.427,149.427,0,0,1,3642.415,1985.019Z" transform="translate(17.793 32.407)" fill="#fefefe"/>
    <path id="Path_4822" data-name="Path 4822" d="M3682.246,2025.766q-16.63-20.37-33.261-40.739,14.642-11.25,29.268-22.519c1.667-1.29,3.393-2.616,4.054-4.8,1.658,1.214,1.255,3.022,1.257,4.656q.036,29.8-.017,59.6C3683.544,2023.305,3684.175,2025.019,3682.246,2025.766Z" transform="translate(46.959 32.435)" fill="#fefefe"/>
  </g>
</svg>
