<svg xmlns="http://www.w3.org/2000/svg" width="29.834" height="31.815" viewBox="0 0 29.834 31.815"><g transform="translate(-790.563 -618.218)"><g transform="translate(790.563 624.716)"><g transform="translate(0 0)"><path d="M814.8,697.415a12.2,12.2,0,1,1-18.521-.138,1.362,1.362,0,1,0-1.859-1.988,14.918,14.918,0,1,0,23.025,1.1,1.425,1.425,0,1,0-2.645,1.024Z" transform="translate(-790.563 -694.882)" fill="#d2d2d2"/></g></g><g transform="translate(795.306 633.76)"><g transform="translate(0 0)"><path d="M856.7,810.407a7.467,7.467,0,0,1-7.458-7.458,1.356,1.356,0,0,0-2.712,0A10.182,10.182,0,0,0,856.7,813.12a1.356,1.356,0,1,0,0-2.712Z" transform="translate(-846.527 -801.593)" fill="#d2d2d2"/></g></g><path d="M889.828,622.821c-1.574-2.968-3.542-4.6-5.541-4.6s-3.967,1.635-5.542,4.6a17.549,17.549,0,0,0-2.078,7.343,7.629,7.629,0,0,0,6.747,7.569v2.585a.872.872,0,1,0,1.745,0v-2.585a7.63,7.63,0,0,0,6.747-7.569A17.55,17.55,0,0,0,889.828,622.821Zm-4.669,9.991a7.445,7.445,0,0,0,5-2.805c0,.053,0,.106,0,.157a5.862,5.862,0,0,1-5,5.809Zm-6.291-5.566a18.25,18.25,0,0,1,.919-2.577,5.518,5.518,0,0,0,3.627,2.253v4.129a5.7,5.7,0,0,1-2.553-1.071A5.793,5.793,0,0,1,878.869,627.246Zm4.546-4.852v2.75a3.726,3.726,0,0,1-1.389-.651,3.845,3.845,0,0,1-1.269-1.673c1.124-1.818,2.408-2.857,3.531-2.857s2.41,1.042,3.535,2.864a3.846,3.846,0,0,1-1.247,1.653,3.725,3.725,0,0,1-1.415.667v-2.752a.872.872,0,0,0-1.745,0Zm4.327,7.564a5.7,5.7,0,0,1-2.582,1.092v-4.128a5.515,5.515,0,0,0,3.629-2.248,18.268,18.268,0,0,1,.917,2.571A5.8,5.8,0,0,1,887.741,629.959Zm-4.327,2.853v3.161a5.862,5.862,0,0,1-5-5.809q0-.077,0-.157a7.443,7.443,0,0,0,5,2.806Z" transform="translate(-78.807)" fill="#d2d2d2"/></g></svg>