<svg xmlns="http://www.w3.org/2000/svg" xmlns:xlink="http://www.w3.org/1999/xlink" width="161.134" height="43.525" viewBox="0 0 161.134 43.525">
  <defs>
    <linearGradient id="linear-gradient" y1="0.5" x2="1" y2="0.5" gradientUnits="objectBoundingBox">
      <stop offset="0.002" stop-color="#39adab"/>
      <stop offset="0.552" stop-color="#3bb0c3"/>
      <stop offset="1" stop-color="#3eb4da"/>
    </linearGradient>
    <linearGradient id="linear-gradient-3" y1="0.5" x2="1" y2="0.5" gradientUnits="objectBoundingBox">
      <stop offset="0.002" stop-color="#92bb55"/>
      <stop offset="1" stop-color="#3f7f58"/>
    </linearGradient>
  </defs>
  <g id="Group_63" data-name="Group 63" transform="translate(-125.111 -218.169)">
    <path id="Path_4800" data-name="Path 4800" d="M152.416,254.35v14.728a13.679,13.679,0,0,1-2.49,1.181,26.341,26.341,0,0,1-2.891.865,24.612,24.612,0,0,1-3.039.527,26.71,26.71,0,0,1-2.891.169,17.151,17.151,0,0,1-6.773-1.266,14.532,14.532,0,0,1-8.145-8.419,16.874,16.874,0,0,1-1.076-6.014,16.374,16.374,0,0,1,1.16-6.2,15.3,15.3,0,0,1,3.207-4.98,14.625,14.625,0,0,1,4.917-3.313,16.1,16.1,0,0,1,6.288-1.2,18.625,18.625,0,0,1,6.753,1.034,12.424,12.424,0,0,1,4.389,2.849l-1.7,1.82a1.828,1.828,0,0,1-2.428.2,9.768,9.768,0,0,0-2.67-1.411,13.522,13.522,0,0,0-4.347-.7,10.86,10.86,0,0,0-8.187,3.5,11.244,11.244,0,0,0-2.279,3.777,13.243,13.243,0,0,0-.8,4.621,12.336,12.336,0,0,0,.886,4.706,11.648,11.648,0,0,0,2.448,3.777,11.281,11.281,0,0,0,3.671,2.511,11.525,11.525,0,0,0,4.6.908,19.9,19.9,0,0,0,4.073-.4,11.427,11.427,0,0,0,3.27-1.16v-8.314h-4.8a1.822,1.822,0,0,1-1.822-1.822V254.35Z" transform="translate(0 -16.191)" fill="#fff"/>
    <path id="Path_4801" data-name="Path 4801" d="M256.091,243.213H266.6a12.287,12.287,0,0,1,4.726.781,8.038,8.038,0,0,1,2.933,1.983,6.767,6.767,0,0,1,1.5,2.7,10.654,10.654,0,0,1,.422,2.891,7.709,7.709,0,0,1-.506,2.764,7.821,7.821,0,0,1-1.456,2.406,8.324,8.324,0,0,1-2.321,1.814,8.078,8.078,0,0,1-3.06.908l8.482,13.63h-4.012a1.822,1.822,0,0,1-1.578-.911l-7.071-12.255h-4.516V273.09h-4.052Zm4.052,13.166h5.318a14.544,14.544,0,0,0,2.342-.189,6.3,6.3,0,0,0,2.068-.7,3.808,3.808,0,0,0,1.456-1.456,5.829,5.829,0,0,0,0-4.937,3.808,3.808,0,0,0-1.456-1.456,6.282,6.282,0,0,0-2.068-.7,14.442,14.442,0,0,0-2.342-.19h-5.317Z" transform="translate(-95.292 -18.22)" fill="#fff"/>
    <path id="Path_4802" data-name="Path 4802" d="M517.773,243.213h3.406a1.822,1.822,0,0,1,1.713,1.2l8.344,23.1h.084l8.673-23.125a1.821,1.821,0,0,1,1.706-1.182h3.168L533.093,273.09h-3.8Z" transform="translate(-285.675 -18.22)" fill="#fff"/>
    <path id="Path_4803" data-name="Path 4803" d="M642.931,243.212h19.287v1.976a1.822,1.822,0,0,1-1.822,1.822H646.983v8.9h14.18v3.8h-14.18v9.579h14.173a1.822,1.822,0,0,1,1.822,1.822v1.977H642.931Z" transform="translate(-376.732 -18.219)" fill="#fff"/>
    <g id="Group_39" data-name="Group 39" transform="translate(186.101 218.169)">
      <circle id="Ellipse_2" data-name="Ellipse 2" cx="21.762" cy="21.762" r="21.762" transform="translate(0)" fill="#fff"/>
      <path id="Path_4799" data-name="Path 4799" d="M382.469,230.877a16.14,16.14,0,0,0-9.652,5.292c-3.438,3.65-10.6,3.691-17.374,5.4-3.828.967-5.491,4.19-6.485,7.581,0,.009,0,.017,0,.026a21.647,21.647,0,0,0,4.643,13.406,35.932,35.932,0,0,0,.56-5.689c.214-7.555-1.64-9.978,0-11.047,2.335-1.523,4.062,3.065,4.49,9.765a28.384,28.384,0,0,1-1.518,10.55A21.782,21.782,0,0,0,360,268.1c.909-4.149,1.3-10.425,1.858-16.839.713-8.125,2.994-9.836,5.7-10.263s3.564.784,3.711,4.7c0,7.7-3.76,19.521-5.525,24.642a21.758,21.758,0,0,0,4.583.573c.683-5.83,2-17,2.362-19.656.5-3.635,3.092.04,3.921-2.637.5-3.207-4.348-6.13-2.637-8.054s8.054,2.021,8.054,2.021c-4.322,4.665-2.871,19.351-1.915,26.191a21.744,21.744,0,0,0,3.96-2.449c-1.1-8.854-1.714-19.916-.264-20.988,1.639-1.212,3.136-.356,4.277,2.495.673,1.684,1.023,7.867,1.2,12.648a21.689,21.689,0,0,0-6.815-29.613Z" transform="translate(-348.957 -227.415)" fill="#97826b"/>
      <path id="Path_4804" data-name="Path 4804" d="M350.65,271.58a21.759,21.759,0,1,0,39.7-16.041C380.588,258.745,378.608,282.758,350.65,271.58Z" transform="translate(-350.189 -245.357)" fill="url(#linear-gradient)" style="mix-blend-mode: darken;isolation: isolate"/>
      <path id="Path_4805" data-name="Path 4805" d="M350.65,271.58a21.759,21.759,0,1,0,39.7-16.041C380.588,258.745,378.608,282.758,350.65,271.58Z" transform="translate(-350.189 -245.357)" opacity="0.55" fill="url(#linear-gradient)"/>
      <g id="Group_36" data-name="Group 36" transform="translate(0.004 0)" style="mix-blend-mode: darken;isolation: isolate">
        <path id="Path_4806" data-name="Path 4806" d="M348.971,239.863a27.646,27.646,0,0,1,17.2-11.872c8.532-1.709,17.894-1.644,19-4.308a21.734,21.734,0,0,0-36.2,16.18Z" transform="translate(-348.971 -218.17)" fill="url(#linear-gradient-3)"/>
      </g>
      <g id="Group_37" data-name="Group 37" transform="translate(0.004 0)" opacity="0.55">
        <path id="Path_4807" data-name="Path 4807" d="M348.971,239.863a27.646,27.646,0,0,1,17.2-11.872c8.532-1.709,17.894-1.644,19-4.308a21.734,21.734,0,0,0-36.2,16.18Z" transform="translate(-348.971 -218.17)" fill="url(#linear-gradient-3)"/>
      </g>
    </g>
  </g>
</svg>
