<?xml version="1.0" encoding="iso-8859-1"?>
<!-- Generator: Adobe Illustrator 18.1.1, SVG Export Plug-In . SVG Version: 6.00 Build 0)  -->
<svg version="1.1" id="Capa_1" xmlns="http://www.w3.org/2000/svg" xmlns:xlink="http://www.w3.org/1999/xlink" x="0px" y="0px"
	 viewBox="0 0 39.5 39.5" style="enable-background:new 0 0 39.5 39.5;" xml:space="preserve">
<g>
	<path style="fill:#010002;" d="M24.536,34.619l-3.222-19.694c0,0-0.936,0-2.087,0c-1.15,0-2.333,2.2-2.644,4.915L14.358,39.5h6.028
		C23.118,39.5,24.975,37.314,24.536,34.619z"/>
	<path style="fill:#010002;" d="M38.072,13.276c-2.931-5.325-6.493-6.885-9.717-6.874c6.468-2.661,6.508-4.636,6.508-4.636
		c-9.501-4.697-14.085,1.03-15.988,4.913c-1.907-3.883-6.49-9.61-15.991-4.913c0,0,0.031,2.032,6.792,4.753
		c-2.809,0.439-5.757,2.232-8.248,6.757c0,0,1,1.383,6.619,0.364c-1.033,1.815-1.675,4.232-1.558,7.547
		c0,0,3.244,1.401,13.261-11.104c10.016,12.505,13.262,11.104,13.262,11.104c0.115-3.315-0.524-5.732-1.56-7.547
		C37.072,14.659,38.072,13.276,38.072,13.276z"/>
</g>
<g>
</g>
<g>
</g>
<g>
</g>
<g>
</g>
<g>
</g>
<g>
</g>
<g>
</g>
<g>
</g>
<g>
</g>
<g>
</g>
<g>
</g>
<g>
</g>
<g>
</g>
<g>
</g>
<g>
</g>
</svg>
